<?xml version="1.0" encoding="UTF-8" standalone="no"?><!DOCTYPE svg PUBLIC "-//W3C//DTD SVG 1.1//EN" "http://www.w3.org/Graphics/SVG/1.1/DTD/svg11.dtd"><!-- Generated by graphviz version 2.40.1 (20161225.0304)
 --><!-- Title: G Pages: 1 --><svg xmlns="http://www.w3.org/2000/svg" xmlns:xlink="http://www.w3.org/1999/xlink" width="988pt" height="306pt" viewBox="0.00 0.00 988.16 306.20">
<g id="graph0" class="graph" transform="scale(1 1) rotate(0) translate(4 302.2)">
<title>G</title>
<polygon fill="#ffffff" stroke="transparent" points="-4,4 -4,-302.2 984.1624,-302.2 984.1624,4 -4,4"/>
<!-- authors -->
<g id="node1" class="node">
<title>authors</title>
<polygon fill="none" stroke="#000000" points="0,-153.7 0,-212.1 220.9594,-212.1 220.9594,-153.7 0,-153.7"/>
<text text-anchor="middle" x="28.6052" y="-178.7" font-family="Times,serif" font-size="14.00" fill="#000000">authors</text>
<polyline fill="none" stroke="#000000" points="57.2104,-153.7 57.2104,-212.1 "/>
<text text-anchor="start" x="65.2104" y="-195.5" font-family="Times,serif" font-size="14.00" fill="#000000">id : INT (PK) </text>
<text text-anchor="start" x="65.2104" y="-178.7" font-family="Times,serif" font-size="14.00" fill="#000000"> name : VARCHAR(255) </text>
<text text-anchor="start" x="65.2104" y="-161.9" font-family="Times,serif" font-size="14.00" fill="#000000"> email : VARCHAR(255) </text>
</g>
<!-- articles -->
<g id="node2" class="node">
<title>articles</title>
<polygon fill="none" stroke="#000000" points="358.4447,-128.5 358.4447,-237.3 587.1503,-237.3 587.1503,-128.5 358.4447,-128.5"/>
<text text-anchor="middle" x="386.6551" y="-178.7" font-family="Times,serif" font-size="14.00" fill="#000000">articles</text>
<polyline fill="none" stroke="#000000" points="414.8655,-128.5 414.8655,-237.3 "/>
<text text-anchor="start" x="422.8655" y="-220.7" font-family="Times,serif" font-size="14.00" fill="#000000">id : INT (PK) </text>
<text text-anchor="start" x="422.8655" y="-203.9" font-family="Times,serif" font-size="14.00" fill="#000000"> title : VARCHAR(255) </text>
<text text-anchor="start" x="422.8655" y="-187.1" font-family="Times,serif" font-size="14.00" fill="#000000"> content : TEXT </text>
<text text-anchor="start" x="422.8655" y="-170.3" font-family="Times,serif" font-size="14.00" fill="#000000"> category_id : INT (FK) </text>
<text text-anchor="start" x="422.8655" y="-153.5" font-family="Times,serif" font-size="14.00" fill="#000000"> created_at : TIMESTAMP </text>
<text text-anchor="start" x="422.8655" y="-136.7" font-family="Times,serif" font-size="14.00" fill="#000000"> author_id : INT (FK) </text>
</g>
<!-- authors&#45;&gt;articles -->
<g id="edge1" class="edge">
<title>authors-&gt;articles</title>
<path fill="none" stroke="#000000" d="M221.1557,-182.9C261.3371,-182.9 306.9993,-182.9 348.2943,-182.9"/>
<polygon fill="#000000" stroke="#000000" points="348.4144,-186.4001 358.4144,-182.9 348.4143,-179.4001 348.4144,-186.4001"/>
<text text-anchor="middle" x="281.1428" y="-187.1" font-family="Times,serif" font-size="14.00" fill="#000000">author_id (FK)</text>
</g>
<!-- articles_images -->
<g id="node4" class="node">
<title>articles_images</title>
<polygon fill="none" stroke="#000000" points="737.0648,-204.1 737.0648,-245.7 980.1624,-245.7 980.1624,-204.1 737.0648,-204.1"/>
<text text-anchor="middle" x="788.6027" y="-220.7" font-family="Times,serif" font-size="14.00" fill="#000000">articles_images</text>
<polyline fill="none" stroke="#000000" points="840.1406,-204.1 840.1406,-245.7 "/>
<text text-anchor="start" x="848.1406" y="-229.1" font-family="Times,serif" font-size="14.00" fill="#000000">article_id : INT (FK) </text>
<text text-anchor="start" x="848.1406" y="-212.3" font-family="Times,serif" font-size="14.00" fill="#000000"> image_id : INT (FK) </text>
</g>
<!-- articles&#45;&gt;articles_images -->
<g id="edge3" class="edge">
<title>articles-&gt;articles_images</title>
<path fill="none" stroke="#000000" d="M587.2497,-195.3593C631.0369,-200.126 681.3246,-205.6003 726.6195,-210.5311"/>
<polygon fill="#000000" stroke="#000000" points="726.4858,-214.0371 736.8059,-211.64 727.2434,-207.0783 726.4858,-214.0371"/>
<text text-anchor="middle" x="670.6668" y="-212.1" font-family="Times,serif" font-size="14.00" fill="#000000">id (FK)</text>
</g>
<!-- categories -->
<g id="node6" class="node">
<title>categories</title>
<polygon fill="none" stroke="#000000" points="740.7573,-110.1 740.7573,-151.7 976.4699,-151.7 976.4699,-110.1 740.7573,-110.1"/>
<text text-anchor="middle" x="777.1297" y="-126.7" font-family="Times,serif" font-size="14.00" fill="#000000">categories</text>
<polyline fill="none" stroke="#000000" points="813.5021,-110.1 813.5021,-151.7 "/>
<text text-anchor="start" x="821.5021" y="-135.1" font-family="Times,serif" font-size="14.00" fill="#000000">id : INT (PK) </text>
<text text-anchor="start" x="821.5021" y="-118.3" font-family="Times,serif" font-size="14.00" fill="#000000"> name : VARCHAR(100) </text>
</g>
<!-- articles&#45;&gt;categories -->
<g id="edge2" class="edge">
<title>articles-&gt;categories</title>
<path fill="none" stroke="#000000" d="M587.2497,-167.4742C632.2672,-161.4068 684.1558,-154.4133 730.4257,-148.1771"/>
<polygon fill="#000000" stroke="#000000" points="731.0723,-151.6217 740.5152,-146.8172 730.1372,-144.6844 731.0723,-151.6217"/>
<text text-anchor="middle" x="670.6668" y="-166.1" font-family="Times,serif" font-size="14.00" fill="#000000">category_id (FK)</text>
</g>
<!-- images -->
<g id="node3" class="node">
<title>images</title>
<polygon fill="none" stroke="#000000" points="350.2652,-256.1 350.2652,-297.7 595.3298,-297.7 595.3298,-256.1 350.2652,-256.1"/>
<text text-anchor="middle" x="378.0927" y="-272.7" font-family="Times,serif" font-size="14.00" fill="#000000">images</text>
<polyline fill="none" stroke="#000000" points="405.9202,-256.1 405.9202,-297.7 "/>
<text text-anchor="start" x="413.9202" y="-281.1" font-family="Times,serif" font-size="14.00" fill="#000000">id : INT (PK) </text>
<text text-anchor="start" x="413.9202" y="-264.3" font-family="Times,serif" font-size="14.00" fill="#000000"> image_url : VARCHAR(255) </text>
</g>
<!-- images&#45;&gt;articles_images -->
<g id="edge4" class="edge">
<title>images-&gt;articles_images</title>
<path fill="none" stroke="#000000" d="M595.4022,-260.3754C637.2782,-254.7314 684.2746,-248.3973 726.8416,-242.6601"/>
<polygon fill="#000000" stroke="#000000" points="727.5461,-246.0969 736.9889,-241.2925 726.611,-239.1596 727.5461,-246.0969"/>
<text text-anchor="middle" x="670.6668" y="-259.1" font-family="Times,serif" font-size="14.00" fill="#000000">id (FK)</text>
</g>
<!-- users -->
<g id="node5" class="node">
<title>users</title>
<polygon fill="none" stroke="#000000" points="341.3262,-.5 341.3262,-109.3 604.2688,-109.3 604.2688,-.5 341.3262,-.5"/>
<text text-anchor="middle" x="363.7084" y="-50.7" font-family="Times,serif" font-size="14.00" fill="#000000">users</text>
<polyline fill="none" stroke="#000000" points="386.0906,-.5 386.0906,-109.3 "/>
<text text-anchor="start" x="394.0906" y="-92.7" font-family="Times,serif" font-size="14.00" fill="#000000">id : INT (PK) </text>
<text text-anchor="start" x="394.0906" y="-75.9" font-family="Times,serif" font-size="14.00" fill="#000000"> username : VARCHAR(50) </text>
<text text-anchor="start" x="394.0906" y="-59.1" font-family="Times,serif" font-size="14.00" fill="#000000"> email : VARCHAR(255) </text>
<text text-anchor="start" x="394.0906" y="-42.3" font-family="Times,serif" font-size="14.00" fill="#000000"> password_hash : VARCHAR(255) </text>
<text text-anchor="start" x="394.0906" y="-25.5" font-family="Times,serif" font-size="14.00" fill="#000000"> is_admin : BOOLEAN </text>
<text text-anchor="start" x="394.0906" y="-8.7" font-family="Times,serif" font-size="14.00" fill="#000000"> category_id : INT (FK) </text>
</g>
<!-- users&#45;&gt;categories -->
<g id="edge5" class="edge">
<title>users-&gt;categories</title>
<path fill="none" stroke="#000000" d="M604.4944,-80.8423C649.3529,-89.6788 699.1379,-99.4857 742.6689,-108.0606"/>
<polygon fill="#000000" stroke="#000000" points="742.2343,-111.5422 752.7222,-110.041 743.5872,-104.6742 742.2343,-111.5422"/>
<text text-anchor="middle" x="670.6668" y="-107.1" font-family="Times,serif" font-size="14.00" fill="#000000">category_id (FK)</text>
</g>
</g>
</svg>